# xmcd CD Database Entry
#
# Track frame offsets:
# 150
# 16305
# 30915
# 45452
# 55022
# 76085
# 93850
# 111010
# 121965
# 137057
# 150870
# 165150
# 182520
# 207248
# 217644
# 242009
# 260688
# 282363
# 302796
# 318815
# 336660
#
# Disc length: 4696 seconds
#
# Revision: 3
# Processed by: cddbd v1.4PL0 Copyright (c) Steve Scherf et al.
# Submitted via: tcd 2.0b
#
DISCID=03125615
DTITLE=Jack Johnson and Friends - Brushfire Fairytales and misc
DYEAR=1900
DGENRE=
TTITLE0=Inaudible Melodies
TTITLE1=Middle Man
TTITLE2=Posters
TTITLE3=Sexy Plexi
TTITLE4=Flake
TTITLE5=Bubble Toes
TTITLE6=Fortunate Fool
TTITLE7=The News
TTITLE8=Drink the Water
TTITLE9=Mudfootball
TTITLE10=F-Stop Blues
TTITLE11=Losing Hope
TTITLE12=It's All Understood
TTITLE13=Rodeo Clowns
TTITLE14=Massive Attack - Teardrop
TTITLE15=Jurassic 5 - Great Expectations
TTITLE16=Jurassic 5 - Quality Control
TTITLE17=Ozomatli - Cut Chemist Suite
TTITLE18=Ozomatli - Cumbia De Los Muertos
TTITLE19=Ozomatli - Como Ves
TTITLE20=Gorillaz - 19-2000
EXTD=
EXTT0=
EXTT1=
EXTT2=
EXTT3=
EXTT4=
EXTT5=
EXTT6=
EXTT7=
EXTT8=
EXTT9=
EXTT10=
EXTT11=
EXTT12=
EXTT13=
EXTT14=
EXTT15=
EXTT16=
EXTT17=
EXTT18=
EXTT19=
EXTT20=
PLAYORDER=
